<?xml version="1.0" encoding="utf-8" ?>
<svg xmlns="http://www.w3.org/2000/svg" xmlns:xlink="http://www.w3.org/1999/xlink" width="24" height="24" viewBox="0 0 24 24">
	<path transform="matrix(1 0 0 1 11 11)" d="M5.5 8.75L0 8.75Q-0.0738685 8.75 -0.146318 8.73559Q-0.218767 8.72118 -0.287013 8.69291Q-0.355258 8.66464 -0.416678 8.6236Q-0.478097 8.58256 -0.53033 8.53033Q-0.582563 8.4781 -0.623602 8.41668Q-0.664641 8.35526 -0.69291 8.28701Q-0.721178 8.21877 -0.735589 8.14632Q-0.75 8.07387 -0.75 8L-0.75 4Q-0.75 3.92613 -0.735589 3.85368Q-0.721178 3.78123 -0.69291 3.71299Q-0.664641 3.64474 -0.623602 3.58332Q-0.582563 3.5219 -0.53033 3.46967Q-0.478097 3.41744 -0.416678 3.3764Q-0.355258 3.33536 -0.287013 3.30709Q-0.218767 3.27882 -0.146318 3.26441Q-0.0738685 3.25 0 3.25L7 3.25L7 4L6.25 4L6.25 0Q6.25 -0.0738685 6.26441 -0.146318Q6.27882 -0.218767 6.30709 -0.287013Q6.33536 -0.355258 6.3764 -0.416678Q6.41744 -0.478097 6.46967 -0.53033Q6.5219 -0.582563 6.58332 -0.623602Q6.64474 -0.664641 6.71299 -0.69291Q6.78123 -0.721178 6.85368 -0.735589Q6.92613 -0.75 7 -0.75L11 -0.75Q11.0739 -0.75 11.1463 -0.735589Q11.2188 -0.721178 11.287 -0.69291Q11.3553 -0.664641 11.4167 -0.623602Q11.4781 -0.582563 11.5303 -0.53033Q11.5826 -0.478097 11.6236 -0.416678Q11.6646 -0.355258 11.6929 -0.287013Q11.7212 -0.218767 11.7356 -0.146318Q11.75 -0.0738685 11.75 0L11.75 8Q11.75 8.07387 11.7356 8.14632Q11.7212 8.21877 11.6929 8.28701Q11.6646 8.35526 11.6236 8.41668Q11.5826 8.4781 11.5303 8.53033Q11.4781 8.58256 11.4167 8.6236Q11.3553 8.66464 11.287 8.69291Q11.2188 8.72118 11.1463 8.73559Q11.0739 8.75 11 8.75L8.5 8.75L8.5 8L9.03033 8.53033L7.53033 10.0303Q7.4781 10.0826 7.41668 10.1236Q7.35526 10.1646 7.28701 10.1929Q7.21877 10.2212 7.14632 10.2356Q7.07387 10.25 7 10.25Q6.92613 10.25 6.85368 10.2356Q6.78123 10.2212 6.71299 10.1929Q6.64474 10.1646 6.58332 10.1236Q6.5219 10.0826 6.46967 10.0303L4.96967 8.53033L5.5 8L5.5 8.75ZM5.5 7.25Q5.64918 7.25 5.78701 7.30709Q5.92484 7.36418 6.03033 7.46967L7.53033 8.96967L7 9.5L6.46967 8.96967L7.96967 7.46967Q8.07516 7.36418 8.21299 7.30709Q8.35081 7.25 8.5 7.25L11 7.25L11 8L10.25 8L10.25 0L11 0L11 0.75L7 0.75L7 0L7.75 0L7.75 4Q7.75 4.07387 7.73559 4.14632Q7.72118 4.21877 7.69291 4.28701Q7.66464 4.35526 7.6236 4.41668Q7.58256 4.4781 7.53033 4.53033Q7.4781 4.58256 7.41668 4.6236Q7.35526 4.66464 7.28701 4.69291Q7.21877 4.72118 7.14632 4.73559Q7.07387 4.75 7 4.75L0 4.75L0 4L0.75 4L0.75 8L0 8L0 7.25L5.5 7.25Z" fill-rule="nonzero" fill="rgb(16, 16, 16)"/>
	<path transform="matrix(1 0 0 1 2 3)" d="M0 -0.75L16 -0.75Q16.0739 -0.75 16.1463 -0.735589Q16.2188 -0.721178 16.287 -0.69291Q16.3553 -0.664641 16.4167 -0.623602Q16.4781 -0.582563 16.5303 -0.53033Q16.5826 -0.478097 16.6236 -0.416678Q16.6646 -0.355258 16.6929 -0.287013Q16.7212 -0.218767 16.7356 -0.146318Q16.75 -0.0738685 16.75 0L16.75 12Q16.75 12.0739 16.7356 12.1463Q16.7212 12.2188 16.6929 12.287Q16.6646 12.3553 16.6236 12.4167Q16.5826 12.4781 16.5303 12.5303Q16.4781 12.5826 16.4167 12.6236Q16.3553 12.6646 16.287 12.6929Q16.2188 12.7212 16.1463 12.7356Q16.0739 12.75 16 12.75L6.5 12.75L6.5 12L7.03033 12.5303L5.03033 14.5303Q4.9781 14.5826 4.91668 14.6236Q4.85526 14.6646 4.78701 14.6929Q4.71877 14.7212 4.64632 14.7356Q4.57387 14.75 4.5 14.75Q4.42613 14.75 4.35368 14.7356Q4.28123 14.7212 4.21299 14.6929Q4.14474 14.6646 4.08332 14.6236Q4.0219 14.5826 3.96967 14.5303L1.96967 12.5303L2.5 12L2.5 12.75L0 12.75Q-0.0738685 12.75 -0.146318 12.7356Q-0.218767 12.7212 -0.287013 12.6929Q-0.355258 12.6646 -0.416678 12.6236Q-0.478097 12.5826 -0.53033 12.5303Q-0.582563 12.4781 -0.623602 12.4167Q-0.664641 12.3553 -0.69291 12.287Q-0.721178 12.2188 -0.735589 12.1463Q-0.75 12.0739 -0.75 12L-0.75 0Q-0.75 -0.0738685 -0.735589 -0.146318Q-0.721178 -0.218767 -0.69291 -0.287013Q-0.664641 -0.355258 -0.623602 -0.416678Q-0.582563 -0.478097 -0.53033 -0.53033Q-0.478097 -0.582563 -0.416678 -0.623602Q-0.355258 -0.664641 -0.287013 -0.69291Q-0.218767 -0.721178 -0.146318 -0.735589Q-0.0738685 -0.75 0 -0.75ZM0 0.75L0 0L0.75 0L0.75 12L0 12L0 11.25L2.5 11.25Q2.64918 11.25 2.78701 11.3071Q2.92484 11.3642 3.03033 11.4697L5.03033 13.4697L4.5 14L3.96967 13.4697L5.96967 11.4697Q6.07516 11.3642 6.21299 11.3071Q6.35082 11.25 6.5 11.25L16 11.25L16 12L15.25 12L15.25 0L16 0L16 0.75L0 0.75Z" fill-rule="nonzero" fill="rgb(16, 16, 16)"/>
	<path transform="matrix(1 0 0 1 9.5 9)" d="M-0.75 0C-0.75 0.41421 -0.41421 0.75 0 0.75L0.5 0.75C0.91421 0.75 1.25 0.41421 1.25 0C1.25 -0.41421 0.91421 -0.75 0.5 -0.75L0 -0.75C-0.41421 -0.75 -0.75 -0.41421 -0.75 0Z" fill-rule="evenodd" fill="rgb(16, 16, 16)"/>
	<path transform="matrix(1 0 0 1 13 9)" d="M-0.75 0C-0.75 0.41421 -0.41421 0.75 0 0.75L0.5 0.75C0.91421 0.75 1.25 0.41421 1.25 0C1.25 -0.41421 0.91421 -0.75 0.5 -0.75L0 -0.75C-0.41421 -0.75 -0.75 -0.41421 -0.75 0Z" fill-rule="evenodd" fill="rgb(16, 16, 16)"/>
	<path transform="matrix(1 0 0 1 6 9)" d="M-0.75 0C-0.75 0.41421 -0.41421 0.75 0 0.75L0.5 0.75C0.91421 0.75 1.25 0.41421 1.25 0C1.25 -0.41421 0.91421 -0.75 0.5 -0.75L0 -0.75C-0.41421 -0.75 -0.75 -0.41421 -0.75 0Z" fill-rule="evenodd" fill="rgb(16, 16, 16)"/>
</svg>
