<?xml version="1.0" encoding="utf-8" ?>
<svg xmlns="http://www.w3.org/2000/svg" xmlns:xlink="http://www.w3.org/1999/xlink" width="30" height="30" viewBox="0 0 30 30">
	<path transform="matrix(1 0 0 1 3.125 8.125)" d="M1 0C0.447715 0 0 0.447715 0 1L0 16.5C0 17.0523 0.447715 17.5 1 17.5L22.75 17.5C23.3023 17.5 23.75 17.0523 23.75 16.5L23.75 1C23.75 0.447715 23.3023 0 22.75 0L1 0Z" fill-rule="nonzero" fill="rgb(73, 55, 248)"/>
	<path transform="matrix(1 0 0 1 3.125 8.125)" d="M-1 1C-1 -0.10457 -0.10457 -1 1 -1L22.75 -1C23.8546 -1 24.75 -0.10457 24.75 1L24.75 16.5C24.75 17.6046 23.8546 18.5 22.75 18.5L1 18.5C-0.10457 18.5 -1 17.6046 -1 16.5L-1 1ZM1 1L1 16.5L22.75 16.5L22.75 1L1 1Z" fill-rule="nonzero" fill="rgb(73, 55, 248)"/>
	<path transform="matrix(1 0 0 1 7.5 13.75)" d="M3.75 0C5.82107 0 7.5 1.67893 7.5 3.75C7.5 5.82107 5.82107 7.5 3.75 7.5C1.67893 7.5 0 5.82107 0 3.75C0 1.67893 1.67893 0 3.75 0Z" fill-rule="nonzero" fill="rgb(255, 255, 255)"/>
	<path transform="matrix(1 0 0 1 7.5 13.75)" d="M3.75 -1Q4.71572 -1 5.59922 -0.626311Q6.45182 -0.26569 7.10876 0.391243Q7.76569 1.04818 8.12631 1.90078Q8.5 2.78428 8.5 3.75Q8.5 4.71572 8.12631 5.59922Q7.76569 6.45182 7.10876 7.10876Q6.45182 7.76569 5.59922 8.12631Q4.71572 8.5 3.75 8.5Q2.78428 8.5 1.90078 8.12631Q1.04818 7.76569 0.391243 7.10876Q-0.26569 6.45182 -0.626311 5.59922Q-1 4.71572 -1 3.75Q-1 2.78428 -0.626311 1.90078Q-0.26569 1.04818 0.391243 0.391243Q1.04818 -0.26569 1.90078 -0.626311Q2.78428 -1 3.75 -1ZM3.75 1Q3.18985 1 2.67988 1.2157Q2.18655 1.42436 1.80546 1.80546Q1.42436 2.18655 1.2157 2.67988Q1 3.18985 1 3.75Q1 4.31015 1.2157 4.82012Q1.42436 5.31345 1.80546 5.69454Q2.18655 6.07564 2.67988 6.2843Q3.18985 6.5 3.75 6.5Q4.31015 6.5 4.82012 6.2843Q5.31345 6.07564 5.69454 5.69454Q6.07564 5.31345 6.2843 4.82012Q6.5 4.31015 6.5 3.75Q6.5 3.18985 6.2843 2.67988Q6.07564 2.18655 5.69454 1.80546Q5.31345 1.42436 4.82012 1.2157Q4.31015 1 3.75 1Z" fill-rule="nonzero" fill="rgb(255, 255, 255)"/>
	<path transform="matrix(1 0 0 1 18.75 15)" d="M3.75 0L0 0L3.75 0Z" fill-rule="nonzero" fill="rgb(255, 255, 255)"/>
	<path transform="matrix(1 0 0 1 18.75 15)" d="M-1 0C-1 0.55228 -0.55228 1 0 1L3.75 1C4.30228 1 4.75 0.55228 4.75 0C4.75 -0.55228 4.30228 -1 3.75 -1L0 -1C-0.55228 -1 -1 -0.55228 -1 0Z" fill-rule="evenodd" fill="rgb(255, 255, 255)"/>
	<path transform="matrix(1 0 0 1 18.75 20)" d="M3.75 0L0 0L3.75 0Z" fill-rule="nonzero" fill="rgb(255, 255, 255)"/>
	<path transform="matrix(1 0 0 1 18.75 20)" d="M-1 0C-1 0.55228 -0.55228 1 0 1L3.75 1C4.30228 1 4.75 0.55228 4.75 0C4.75 -0.55228 4.30228 -1 3.75 -1L0 -1C-0.55228 -1 -1 -0.55228 -1 0Z" fill-rule="evenodd" fill="rgb(255, 255, 255)"/>
	<path transform="matrix(1 0 0 1 4.375 2.5)" d="M12.1444 -0.447214C11.8974 -0.941188 11.2968 -1.14141 10.8028 -0.894427L-0.447214 4.73057C-0.941188 4.97756 -1.14141 5.57824 -0.894427 6.07221C-0.64744 6.56619 -0.0467608 6.76641 0.447214 6.51943L11.6972 0.894427C12.1912 0.64744 12.3914 0.0467606 12.1444 -0.447214Z" fill-rule="evenodd" fill="rgb(73, 55, 248)"/>
</svg>
