<?xml version="1.0" encoding="utf-8" ?>
<svg xmlns="http://www.w3.org/2000/svg" xmlns:xlink="http://www.w3.org/1999/xlink" width="24" height="24" viewBox="0 0 24 24">
	<path transform="matrix(1 0 0 1 8.5 2)" d="M3.5 -1Q4.41486 -1 5.25191 -0.645957Q6.05965 -0.304313 6.68198 0.318019Q7.30431 0.940352 7.64596 1.74809Q8 2.58514 8 3.5Q8 4.41486 7.64596 5.25191Q7.30431 6.05965 6.68198 6.68198Q6.05965 7.30431 5.25191 7.64596Q4.41486 8 3.5 8Q2.58514 8 1.74809 7.64596Q0.940352 7.30431 0.318019 6.68198Q-0.304313 6.05965 -0.645957 5.25191Q-1 4.41486 -1 3.5Q-1 2.58514 -0.645957 1.74809Q-0.304313 0.940352 0.318019 0.318019Q0.940352 -0.304313 1.74809 -0.645957Q2.58514 -1 3.5 -1ZM3.5 1Q2.99071 1 2.52719 1.19605Q2.07873 1.38574 1.73223 1.73223Q1.38574 2.07873 1.19605 2.52719Q1 2.99071 1 3.5Q1 4.00929 1.19605 4.47281Q1.38574 4.92127 1.73223 5.26777Q2.07873 5.61426 2.52719 5.80395Q2.99071 6 3.5 6Q4.00929 6 4.47281 5.80395Q4.92127 5.61426 5.26777 5.26777Q5.61426 4.92127 5.80395 4.47281Q6 4.00929 6 3.5Q6 2.99071 5.80395 2.52719Q5.61426 2.07873 5.26777 1.73223Q4.92127 1.38574 4.47281 1.19605Q4.00929 1 3.5 1Z" fill-rule="nonzero" fill="rgb(16, 16, 16)"/>
	<path transform="matrix(1 0 0 1 2 12.5)" d="M-0.195719 4.45636Q-1 6.14661 -1 8C-1 8.55228 -0.55228 9 0 9C0.55228 9 1 8.55228 1 8Q1 6.59819 1.61025 5.3157Q2.20628 4.0631 3.30041 3.09055Q4.40732 2.10662 5.84872 1.56471Q7.35073 1 9 1C9.55228 1 10 0.55228 10 0C10 -0.55228 9.55228 -1 9 -1Q6.98719 -1 5.14488 -0.307355Q3.35604 0.365191 1.97168 1.59573Q0.574524 2.83764 -0.195719 4.45636Z" fill-rule="evenodd" fill="rgb(16, 16, 16)"/>
	<path transform="matrix(1 0 0 1 14 14)" d="M1.925 1Q1.58722 1 1.3227 1.30825Q1 1.68428 1 2.2432Q1 2.82199 1.2858 3.45408Q1.55717 4.05426 2.05266 4.63736Q2.5018 5.16591 3.04131 5.57584Q3.50885 5.93107 3.8611 6.06747L3.5 7L3.1389 6.06747Q3.49116 5.93107 3.95869 5.57584Q4.49821 5.16591 4.94734 4.63736Q5.44283 4.05426 5.7142 3.45408Q6 2.822 6 2.2432Q6 1.68428 5.6773 1.30825Q5.41278 1 5.075 1Q4.87929 1 4.69989 1.11092Q4.49736 1.23615 4.35586 1.4703Q4.30492 1.5546 4.23852 1.62733Q4.17211 1.70007 4.09279 1.75846Q4.01347 1.81684 3.92428 1.85863Q3.8351 1.90042 3.73947 1.924Q3.64385 1.94759 3.54546 1.95207Q3.44707 1.95654 3.34969 1.94174Q3.25232 1.92694 3.15971 1.89342Q3.06709 1.8599 2.9828 1.80896Q2.7717 1.6814 2.64414 1.4703Q2.50264 1.23615 2.30011 1.11092Q2.12071 1 1.925 1ZM1.925 -1Q2.68909 -1 3.35192 -0.590162Q3.96483 -0.211191 4.35586 0.435899L3.5 0.9531L2.64414 0.435899Q3.03517 -0.211191 3.64808 -0.590162Q4.31091 -1 5.075 -1Q5.69969 -1 6.26639 -0.720689Q6.79538 -0.459964 7.19506 0.00577974Q7.58034 0.454744 7.78872 1.02885Q8 1.61095 8 2.2432Q8 3.25313 7.53658 4.27807Q7.14921 5.13479 6.47141 5.93244Q5.88139 6.62677 5.16866 7.16831Q4.47646 7.69424 3.8611 7.93253Q3.68685 8 3.5 8Q3.31315 8 3.1389 7.93253Q2.52354 7.69424 1.83134 7.16831Q1.11861 6.62677 0.528592 5.93244Q-0.149212 5.13479 -0.536578 4.27807Q-1 3.25313 -1 2.2432Q-1 1.61095 -0.78872 1.02885Q-0.580338 0.454743 -0.195059 0.00577974Q0.20462 -0.459964 0.733609 -0.720689Q1.30031 -1 1.925 -1Z" fill-rule="nonzero" fill="rgb(16, 16, 16)"/>
</svg>
