<?xml version="1.0" encoding="utf-8" ?>
<svg xmlns="http://www.w3.org/2000/svg" xmlns:xlink="http://www.w3.org/1999/xlink" width="24" height="24" viewBox="0 0 24 24">
	<path transform="matrix(1 0 0 1 2.5 9)" d="M1 0C0.447715 0 0 0.447715 0 1L0 11C0 11.5523 0.447715 12 1 12L18 12C18.5523 12 19 11.5523 19 11L19 1C19 0.447715 18.5523 0 18 0L1 0Z" fill-rule="nonzero" fill="rgb(73, 55, 248)"/>
	<path transform="matrix(1 0 0 1 2.5 9)" d="M-1 1C-1 -0.10457 -0.10457 -1 1 -1L18 -1C19.1046 -1 20 -0.10457 20 1L20 11C20 12.1046 19.1046 13 18 13L1 13C-0.10457 13 -1 12.1046 -1 11L-1 1ZM1 1L1 11L18 11L18 1L1 1Z" fill-rule="nonzero" fill="rgb(73, 55, 248)"/>
	<path transform="matrix(1 0 0 1 4 6)" d="M-1 0C-1 0.55228 -0.55228 1 0 1L16 1C16.5523 1 17 0.55228 17 0C17 -0.55228 16.5523 -1 16 -1L0 -1C-0.55228 -1 -1 -0.55228 -1 0Z" fill-rule="evenodd" fill="rgb(73, 55, 248)"/>
	<path transform="matrix(1 0 0 1 7.5 3)" d="M-1 0C-1 0.55228 -0.55228 1 0 1L9 1C9.55228 1 10 0.55228 10 0C10 -0.55228 9.55228 -1 9 -1L0 -1C-0.55228 -1 -1 -0.55228 -1 0Z" fill-rule="evenodd" fill="rgb(73, 55, 248)"/>
	<path transform="matrix(1 0 0 1 13 12)" d="M0 -1C-0.55228 -1 -1 -0.55228 -1 0L-1 3C-1 3.55228 -0.55228 4 0 4C0.55228 4 1 3.55228 1 3L1 0C1 -0.55228 0.55228 -1 0 -1Z" fill-rule="evenodd" fill="rgb(255, 255, 255)"/>
	<path transform="matrix(1 0 0 1 9 15)" d="M-1 1.37455Q-1 0.883269 -0.801107 0.4344Q-0.611467 0.00641371 -0.268715 -0.32076Q0.0691108 -0.643232 0.505107 -0.819259Q0.952778 -1 1.44 -1L4 -1Q4.09849 -1 4.19509 -0.980785Q4.29169 -0.96157 4.38268 -0.923879Q4.47368 -0.886188 4.55557 -0.83147Q4.63746 -0.776751 4.70711 -0.707107Q4.77675 -0.637463 4.83147 -0.55557Q4.88619 -0.473678 4.92388 -0.382683Q4.96157 -0.291689 4.98079 -0.19509Q5 -0.0984914 5 0L5 1.62545Q5 2.11673 4.80111 2.5656Q4.61147 2.99359 4.26871 3.32076Q3.93089 3.64323 3.49489 3.81926Q3.04722 4 2.56 4L1.44 4Q0.952777 4 0.505107 3.81926Q0.069111 3.64323 -0.268715 3.32076Q-0.611467 2.99359 -0.801107 2.5656Q-1 2.11673 -1 1.62545L-1 1.37455ZM1 1.37455L1 1.62545Q1 1.76691 1.11224 1.87405Q1.24418 2 1.44 2L2.56 2Q2.75582 2 2.88776 1.87405Q3 1.76691 3 1.62545L3 0L4 0L4 1L1.44 1Q1.24418 1 1.11224 1.12595Q1 1.23309 1 1.37455Z" fill-rule="nonzero" fill="rgb(255, 255, 255)"/>
	<path transform="matrix(1 0 0 1 13 12)" d="M-0.980581 -0.196116C-1.08889 0.345439 -0.737671 0.87227 -0.196116 0.980581L2.30388 1.48058C2.84544 1.58889 3.37227 1.23767 3.48058 0.696116C3.58889 0.154561 3.23767 -0.37227 2.69612 -0.480581L0.196116 -0.980581C-0.345439 -1.08889 -0.87227 -0.737671 -0.980581 -0.196116Z" fill-rule="evenodd" fill="rgb(255, 255, 255)"/>
</svg>
