<?xml version="1.0" encoding="utf-8" ?>
<svg xmlns="http://www.w3.org/2000/svg" xmlns:xlink="http://www.w3.org/1999/xlink" width="24" height="24" viewBox="0 0 24 24">
	<path transform="matrix(1 0 0 1 8.5 2)" d="M3.5 0C1.567 0 0 1.567 0 3.5L0 10C0 11.933 1.56175 13.5 3.49475 13.5L3.5 13.5C5.433 13.5 7 11.933 7 10L7 3.5C7 1.567 5.43825 0 3.50525 0L3.5 0Z" fill-rule="nonzero" fill="rgb(73, 55, 248)"/>
	<path transform="matrix(1 0 0 1 8.5 2)" d="M-1 3.5C-1 1.01472 1.01472 -1 3.5 -1C5.98528 -1 8 1.01472 8 3.5L8 10C8 12.4853 5.98528 14.5 3.5 14.5C1.01472 14.5 -1 12.4853 -1 10L-1 3.5ZM3.5 1C2.11929 1 1 2.11929 1 3.5L1 10C1 11.3807 2.11929 12.5 3.5 12.5C4.88071 12.5 6 11.3807 6 10L6 3.5C6 2.11929 4.88071 1 3.5 1L3.5 1Z" fill-rule="nonzero" fill="rgb(73, 55, 248)"/>
	<path transform="matrix(1 0 0 1 4.5 11.5)" d="M0 -1C-0.55228 -1 -1 -0.55228 -1 0Q-1 1.72866 -0.33162 3.3089Q0.31364 4.83447 1.48959 6.01041Q2.66553 7.18636 4.19111 7.83162Q5.77134 8.5 7.5 8.5Q9.22866 8.5 10.8089 7.83162Q12.3345 7.18636 13.5104 6.01041Q14.6864 4.83446 15.3316 3.30889Q16 1.72866 16 0C16 -0.55228 15.5523 -1 15 -1C14.4477 -1 14 -0.55228 14 0Q14 1.32309 13.4896 2.52979Q12.9963 3.69609 12.0962 4.5962Q11.1961 5.49631 10.0298 5.98961Q8.82309 6.5 7.5 6.5Q6.17691 6.5 4.97021 5.98961Q3.80391 5.49631 2.9038 4.5962Q2.00369 3.69609 1.51039 2.52979Q1 1.32309 1 0C1 -0.55228 0.55228 -1 0 -1Z" fill-rule="evenodd" fill="rgb(73, 55, 248)"/>
	<path transform="matrix(1 0 0 1 12 19)" d="M0 -1C-0.55228 -1 -1 -0.55228 -1 0L-1 3C-1 3.55228 -0.55228 4 0 4C0.55228 4 1 3.55228 1 3L1 0C1 -0.55228 0.55228 -1 0 -1Z" fill-rule="evenodd" fill="rgb(73, 55, 248)"/>
</svg>
