<?xml version="1.0" encoding="utf-8" ?>
<svg xmlns="http://www.w3.org/2000/svg" xmlns:xlink="http://www.w3.org/1999/xlink" width="24" height="24" viewBox="0 0 24 24">
	<path transform="matrix(1 0 0 1 15 15.5)" d="M-1 1.75Q-1 1.19118 -0.783481 0.679269Q-0.574669 0.185581 -0.194544 -0.194544Q0.18558 -0.574669 0.679269 -0.783481Q1.19118 -1 1.75 -1L5.5 -1Q5.59849 -1 5.69509 -0.980785Q5.79169 -0.96157 5.88268 -0.923879Q5.97368 -0.886188 6.05557 -0.83147Q6.13746 -0.776751 6.20711 -0.707107Q6.27675 -0.637463 6.33147 -0.55557Q6.38619 -0.473678 6.42388 -0.382683Q6.46157 -0.291689 6.48078 -0.19509Q6.5 -0.0984914 6.5 0L6.5 1.7Q6.5 2.26899 6.27955 2.79019Q6.06694 3.29285 5.67989 3.67989Q5.29285 4.06694 4.79019 4.27955Q4.26899 4.5 3.7 4.5L1.75 4.5Q1.19118 4.5 0.679269 4.28348Q0.18558 4.07467 -0.194544 3.69454Q-0.574669 3.31442 -0.783481 2.82073Q-1 2.30882 -1 1.75ZM1 1.75Q1 2.06066 1.21967 2.28033Q1.43934 2.5 1.75 2.5L3.7 2.5Q4.03136 2.5 4.26568 2.26568Q4.5 2.03136 4.5 1.7L4.5 0L5.5 0L5.5 1L1.75 1Q1.43934 1 1.21967 1.21967Q1 1.43934 1 1.75Z" fill-rule="nonzero" fill="rgb(16, 16, 16)"/>
	<path transform="matrix(1 0 0 1 3 17.5)" d="M-1 1.75Q-1 1.19118 -0.783481 0.679269Q-0.574669 0.185581 -0.194544 -0.194544Q0.18558 -0.574669 0.679269 -0.783481Q1.19118 -1 1.75 -1L5 -1Q5.09849 -1 5.19509 -0.980785Q5.29169 -0.96157 5.38268 -0.923879Q5.47368 -0.886188 5.55557 -0.83147Q5.63746 -0.776751 5.70711 -0.707107Q5.77675 -0.637463 5.83147 -0.55557Q5.88619 -0.473678 5.92388 -0.382683Q5.96157 -0.291689 5.98078 -0.19509Q6 -0.0984914 6 0L6 1.7Q6 2.26899 5.77955 2.79019Q5.56694 3.29285 5.17989 3.67989Q4.79285 4.06694 4.29019 4.27955Q3.76899 4.5 3.2 4.5L1.75 4.5Q1.19118 4.5 0.679269 4.28348Q0.185581 4.07467 -0.194544 3.69454Q-0.574669 3.31442 -0.783481 2.82073Q-1 2.30882 -1 1.75ZM1 1.75Q1 2.06066 1.21967 2.28033Q1.43934 2.5 1.75 2.5L3.2 2.5Q3.53136 2.5 3.76568 2.26568Q4 2.03136 4 1.7L4 0L5 0L5 1L1.75 1Q1.43934 1 1.21967 1.21967Q1 1.43934 1 1.75Z" fill-rule="nonzero" fill="rgb(16, 16, 16)"/>
	<path transform="matrix(1 0 0 1 8 6.0625)" d="M13.4731 -0.230391C13.3459 -0.767814 12.807 -1.10034 12.2696 -0.973098L-0.230391 1.9864C-0.767814 2.11364 -1.10034 2.65247 -0.973098 3.18989C-0.845858 3.72731 -0.307032 4.05984 0.230391 3.9326L12.7304 0.973098C13.2678 0.845858 13.6003 0.307032 13.4731 -0.230391Z" fill-rule="evenodd" fill="rgb(16, 16, 16)"/>
	<path transform="matrix(1 0 0 1 8 2)" d="M-1 3L-1 17C-1 17.5523 -0.55228 18 0 18C0.55228 18 1 17.5523 1 17L1 3.7884L11.5 1.2684L11.5 14.8462C11.5 15.3985 11.9477 15.8462 12.5 15.8462C13.0523 15.8462 13.5 15.3985 13.5 14.8462L13.5 0Q13.5 -0.11832 13.4724 -0.233373Q13.426 -0.426793 13.3091 -0.587725Q13.1922 -0.748657 13.0226 -0.852601Q12.853 -0.956545 12.6565 -0.987677Q12.46 -1.01881 12.2666 -0.972387L-0.233373 2.02761Q-0.314711 2.04713 -0.391675 2.0799Q-0.468639 2.11266 -0.539091 2.15775Q-0.609543 2.20285 -0.671525 2.25902Q-0.733506 2.31519 -0.785294 2.38088Q-0.837082 2.44656 -0.877238 2.51994Q-0.917393 2.59332 -0.9448 2.67235Q-0.972207 2.75138 -0.986103 2.83387Q-1 2.91635 -1 3Z" fill-rule="evenodd" fill="rgb(16, 16, 16)"/>
</svg>
