<?xml version="1.0" encoding="utf-8" ?>
<svg xmlns="http://www.w3.org/2000/svg" xmlns:xlink="http://www.w3.org/1999/xlink" width="24" height="24" viewBox="0 0 24 24">
	<path transform="matrix(1 0 0 1 3.77777 0.0247467)" d="M11 10.8597C12.2394 10.1858 13.1145 9.19138 13.6255 7.87644C14.1364 6.5615 14.1623 5.23708 13.7032 3.90317C13.244 2.56927 12.4084 1.5414 11.1963 0.819586C9.98421 0.0977673 8.68239 -0.147266 7.29083 0.0844862C5.89927 0.316238 4.74713 0.969956 3.83442 2.04564C2.9217 3.12132 2.4643 4.36453 2.46222 5.77525C2.45999 6.83076 2.72588 7.81375 3.2599 8.7242C3.79392 9.63466 4.5221 10.3465 5.44445 10.8597C3.80899 11.4551 2.4924 12.4659 1.49468 13.892C0.496967 15.3181 -0.00125945 16.9014 2.5034e-06 18.6419C2.5034e-06 23.2197 3.68 23.9753 8.22223 23.9753C12.7644 23.9753 16.4444 23.2197 16.4444 18.6419C16.4457 16.9014 15.9475 15.3181 14.9498 13.892C13.9521 12.4659 12.6355 11.4551 11 10.8597ZM8.88889 19.6686L8.38222 21.9353C8.37301 21.9757 8.35219 22.0089 8.31976 22.0347C8.28733 22.0606 8.25037 22.0735 8.20889 22.0735C8.16741 22.0735 8.13045 22.0606 8.09803 22.0347C8.0656 22.0089 8.04478 21.9757 8.03556 21.9353L7.55556 19.6686L6.88889 16.6908C6.8845 16.6723 6.88829 16.6557 6.90026 16.641C6.91223 16.6263 6.9277 16.6192 6.94667 16.6197L9.52445 16.6197C9.54342 16.6192 9.55888 16.6263 9.57085 16.641C9.58282 16.6557 9.58661 16.6723 9.58222 16.6908L8.88889 19.6686ZM10.2667 15.4553C10.3566 15.4565 10.4332 15.4891 10.4964 15.5531C10.5595 15.6172 10.5911 15.6942 10.5911 15.7841C10.5911 15.8741 10.5595 15.9511 10.4964 16.0151C10.4332 16.0792 10.3566 16.1118 10.2667 16.113L6.16445 16.113C6.0745 16.1118 5.99793 16.0792 5.93475 16.0151C5.87158 15.9511 5.83999 15.8741 5.84 15.7841C5.83999 15.6942 5.87158 15.6172 5.93475 15.5531C5.99793 15.4891 6.0745 15.4565 6.16445 15.4553L6.69333 15.4553C6.16766 15.0153 5.8846 14.4532 5.84415 13.7689C5.8037 13.0847 6.01857 12.4931 6.48875 11.9943C6.95893 11.4955 7.53675 11.2462 8.22222 11.2462C8.90769 11.2462 9.48552 11.4955 9.9557 11.9943C10.4259 12.4931 10.6407 13.0847 10.6003 13.7689C10.5598 14.4532 10.2768 15.0153 9.75111 15.4553L10.2667 15.4553Z" fill-rule="nonzero" fill="rgb(73, 55, 248)"/>
</svg>
