<?xml version="1.0" encoding="utf-8" ?>
<svg xmlns="http://www.w3.org/2000/svg" xmlns:xlink="http://www.w3.org/1999/xlink" width="35.5" height="35.2703" viewBox="0 0 35.5 35.2703">
	<defs>
		<filter id="filter1549057176" filterUnits="userSpaceOnUse" color-interpolation-filters="sRGB">
			<feComponentTransfer in="SourceAlpha" result="componentTransfer8480382781">
				<feFuncR type="linear" slope="0" intercept="0"/>
				<feFuncG type="linear" slope="0" intercept="0"/>
				<feFuncB type="linear" slope="0" intercept="0"/>
				<feFuncA type="linear" slope="10000" intercept="0"/>
			</feComponentTransfer>
			<feComponentTransfer in="componentTransfer8480382781" result="componentTransfer2843612587">
				<feFuncA type="linear" slope="0.2" intercept="0"/>
			</feComponentTransfer>
			<feOffset dx="0" dy="4" in="componentTransfer2843612587" result="offset7171221698"/>
			<feGaussianBlur stdDeviation="2" in="offset7171221698" result="gaussianBlur3618981412"/>
			<feMerge>
				<feMergeNode in="gaussianBlur3618981412"/>
				<feMergeNode in="SourceGraphic"/>
			</feMerge>
		</filter>
	</defs>
	<g filter="url(#filter1549057176)">
		<defs>
			<clipPath id="clipPath8012362615">
				<path transform="matrix(1 0 0 1 2.75 0)" d="M0 0L30 0L30 30L0 30L0 0Z" fill-rule="nonzero"/>
			</clipPath>
		</defs>
		<g clip-path="url(#clipPath8012362615)">
			<path transform="matrix(1 0 0 1 5.25 4.375)" d="M-0.0710198 18.0783Q1.06739 20.6403 3.12601 22.5594C3.63097 23.0302 4.42195 23.0024 4.89269 22.4975C5.36344 21.9925 5.3357 21.2015 4.83074 20.7308Q3.145 19.1593 2.21359 17.0632Q1.25 14.8946 1.25 12.5Q1.25 10.2104 2.13357 8.12137Q2.98739 6.1027 4.54505 4.54505Q6.1027 2.98739 8.12138 2.13357Q10.2104 1.25 12.5 1.25Q14.7896 1.25 16.8786 2.13357Q18.8973 2.98739 20.455 4.54505Q22.0126 6.1027 22.8664 8.12138Q23.75 10.2104 23.75 12.5Q23.75 14.8946 22.7864 17.0632Q21.855 19.1593 20.1693 20.7308C19.6643 21.2015 19.6366 21.9925 20.1073 22.4975C20.578 23.0024 21.369 23.0302 21.874 22.5594Q23.9326 20.6403 25.071 18.0783Q26.25 15.4251 26.25 12.5Q26.25 9.70339 25.1689 7.1475Q24.1252 4.67972 22.2227 2.77728Q20.3203 0.874833 17.8525 -0.168944Q15.2966 -1.25 12.5 -1.25Q9.7034 -1.25 7.1475 -0.168944Q4.67973 0.874832 2.77728 2.77728Q0.874832 4.67973 -0.168944 7.14749Q-1.25 9.7034 -1.25 12.5Q-1.25 15.425 -0.0710198 18.0783Z" fill-rule="evenodd" fill="rgb(73, 55, 248)"/>
			<path transform="matrix(1 0 0 1 9.625 8.75)" d="M-0.445961 11.9286Q0.330233 13.6754 1.73358 14.9836C2.23854 15.4544 3.02951 15.4266 3.50026 14.9217C3.971 14.4167 3.94326 13.6257 3.4383 13.155Q2.40784 12.1944 1.83865 10.9134Q1.25 9.58867 1.25 8.125Q1.25 6.72546 1.78976 5.44932Q2.3115 4.21578 3.26364 3.26364Q4.21578 2.3115 5.44932 1.78976Q6.72545 1.25 8.125 1.25Q9.52454 1.25 10.8007 1.78976Q12.0342 2.31151 12.9864 3.26364Q13.9385 4.21578 14.4602 5.44932Q15 6.72545 15 8.125Q15 9.58867 14.4114 10.9134Q13.8422 12.1944 12.8117 13.155C12.3067 13.6257 12.279 14.4167 12.7497 14.9217C13.2205 15.4266 14.0115 15.4544 14.5164 14.9836Q15.9198 13.6754 16.696 11.9286Q17.5 10.1191 17.5 8.125Q17.5 6.21849 16.7628 4.47544Q16.0511 2.7928 14.7541 1.49587Q13.4572 0.198943 11.7746 -0.512753Q10.0315 -1.25 8.125 -1.25Q6.21849 -1.25 4.47544 -0.512753Q2.7928 0.198943 1.49587 1.49587Q0.198943 2.7928 -0.512753 4.47544Q-1.25 6.21849 -1.25 8.125Q-1.25 10.1191 -0.445961 11.9286Z" fill-rule="evenodd" fill="rgb(73, 55, 248)"/>
			<path transform="matrix(1 0 0 1 14 13.125)" d="M-0.820927 5.77881Q-0.406956 6.71047 0.341131 7.40788C0.846088 7.87862 1.63707 7.85089 2.10781 7.34593C2.57856 6.84097 2.55082 6.05 2.04587 5.57925Q1.67066 5.22946 1.46369 4.76367Q1.25 4.28275 1.25 3.75Q1.25 3.24055 1.44595 2.77727Q1.63562 2.32885 1.98224 1.98223Q2.32886 1.63561 2.77727 1.44595Q3.24055 1.25 3.75 1.25Q4.25945 1.25 4.72273 1.44595Q5.17115 1.63562 5.51777 1.98224Q5.86438 2.32885 6.05405 2.77727Q6.25 3.24055 6.25 3.75Q6.25 4.28275 6.03631 4.76367Q5.82934 5.22946 5.45413 5.57925C4.94918 6.05 4.92144 6.84097 5.39219 7.34593C5.86293 7.85089 6.65391 7.87862 7.15887 7.40788Q7.90696 6.71047 8.32093 5.77881Q8.75 4.81317 8.75 3.75Q8.75 2.73358 8.35656 1.80339Q7.97694 0.905881 7.28553 0.214468Q6.59412 -0.476944 5.69661 -0.856561Q4.76642 -1.25 3.75 -1.25Q2.73358 -1.25 1.80339 -0.856561Q0.905881 -0.476945 0.214468 0.214468Q-0.476945 0.905881 -0.856561 1.80339Q-1.25 2.73358 -1.25 3.75Q-1.25 4.81317 -0.820927 5.77881Z" fill-rule="evenodd" fill="rgb(73, 55, 248)"/>
		</g>
	</g>
</svg>
