<?xml version="1.0" encoding="utf-8" ?>
<svg xmlns="http://www.w3.org/2000/svg" xmlns:xlink="http://www.w3.org/1999/xlink" width="24" height="24" viewBox="0 0 24 24">
	<path transform="matrix(1 0 0 1 2 3.5)" d="M-0.0568162 14.4627Q0.853911 16.5122 2.50081 18.0476C2.90478 18.4241 3.53756 18.402 3.91416 17.998C4.29075 17.594 4.26856 16.9612 3.86459 16.5846Q2.516 15.3274 1.77087 13.6505Q1 11.9157 1 10Q1 8.16829 1.70685 6.4971Q2.38991 4.88216 3.63604 3.63604Q4.88216 2.38992 6.4971 1.70685Q8.16829 1 10 1Q11.8317 1 13.5029 1.70685Q15.1178 2.38991 16.364 3.63604Q17.6101 4.88216 18.2931 6.4971Q19 8.1683 19 10Q19 11.9157 18.2291 13.6505Q17.484 15.3274 16.1354 16.5846C15.7314 16.9612 15.7093 17.594 16.0858 17.998C16.4624 18.402 17.0952 18.4241 17.4992 18.0476Q19.1461 16.5123 20.0568 14.4627Q21 12.34 21 10Q21 7.76272 20.1352 5.718Q19.3001 3.74378 17.7782 2.22182Q16.2562 0.699865 14.282 -0.135155Q12.2373 -1 10 -1Q7.76272 -1 5.718 -0.135155Q3.74378 0.699867 2.22182 2.22182Q0.699866 3.74378 -0.135155 5.718Q-1 7.76272 -1 10Q-1 12.34 -0.0568162 14.4627Z" fill-rule="evenodd" fill="rgb(16, 16, 16)"/>
	<path transform="matrix(1 0 0 1 5.5 7)" d="M-0.356769 9.54286Q0.264187 10.9403 1.38686 11.9869C1.79083 12.3635 2.42361 12.3413 2.80021 11.9373C3.1768 11.5334 3.15461 10.9006 2.75064 10.524Q1.92627 9.75549 1.47092 8.73073Q1 7.67093 1 6.5Q1 5.38036 1.43181 4.35946Q1.8492 3.37262 2.61091 2.61091Q3.37262 1.8492 4.35946 1.43181Q5.38036 1 6.5 1Q7.61964 1 8.64054 1.43181Q9.62738 1.8492 10.3891 2.61091Q11.1508 3.37262 11.5682 4.35946Q12 5.38036 12 6.5Q12 7.67093 11.5291 8.73073Q11.0737 9.75549 10.2494 10.524C9.84539 10.9006 9.8232 11.5334 10.1998 11.9373C10.5764 12.3413 11.2092 12.3635 11.6131 11.9869Q12.7358 10.9403 13.3568 9.54286Q14 8.09528 14 6.5Q14 4.97479 13.4102 3.58035Q12.8408 2.23425 11.8033 1.1967Q10.7658 0.159155 9.41965 -0.410202Q8.02521 -1 6.5 -1Q4.97479 -1 3.58035 -0.410202Q2.23424 0.159155 1.1967 1.1967Q0.159155 2.23424 -0.410202 3.58035Q-1 4.97479 -1 6.5Q-1 8.09528 -0.356769 9.54286Z" fill-rule="evenodd" fill="rgb(16, 16, 16)"/>
	<path transform="matrix(1 0 0 1 9 10.5)" d="M-0.656742 4.62305Q-0.325565 5.36838 0.272905 5.9263C0.676871 6.3029 1.30965 6.28071 1.68625 5.87674C2.06285 5.47278 2.04066 4.84 1.63669 4.4634Q1.33653 4.18357 1.17095 3.81094Q1 3.4262 1 3Q1 2.17158 1.58579 1.58579Q2.17158 1 3 1Q3.82842 1 4.41421 1.58579Q5 2.17158 5 3Q5 3.4262 4.82905 3.81094Q4.66347 4.18357 4.36331 4.4634C3.95934 4.84 3.93715 5.47278 4.31375 5.87674C4.69035 6.28071 5.32313 6.3029 5.7271 5.9263Q6.32557 5.36838 6.65674 4.62305Q7 3.85053 7 3Q7 2.18687 6.68525 1.44271Q6.38155 0.724704 5.82843 0.171575Q5.2753 -0.381555 4.55729 -0.685249Q3.81313 -1 3 -1Q2.18687 -1 1.44271 -0.685249Q0.724704 -0.381555 0.171575 0.171574Q-0.381555 0.724704 -0.685249 1.44271Q-1 2.18687 -1 3Q-1 3.85053 -0.656742 4.62305Z" fill-rule="evenodd" fill="rgb(16, 16, 16)"/>
</svg>
