<?xml version="1.0" encoding="utf-8" ?>
<svg xmlns="http://www.w3.org/2000/svg" xmlns:xlink="http://www.w3.org/1999/xlink" width="30" height="30" viewBox="0 0 30 30">
	<path transform="matrix(1 0 0 1 2.5 5)" d="M23.75 0L1.25 0C0.559644 0 0 0.559644 0 1.25L0 18.75C0 19.4404 0.559644 20 1.25 20L23.75 20C24.4404 20 25 19.4404 25 18.75L25 1.25C25 0.559644 24.4404 0 23.75 0Z" fill-rule="nonzero" fill="rgb(73, 55, 248)"/>
	<path transform="matrix(1 0 0 1 2.5 5)" d="M23.75 1L1.25 1Q1.14645 1 1.07322 1.07322Q1 1.14645 1 1.25L1 18.75Q1 18.8536 1.07322 18.9268Q1.14644 19 1.25 19L23.75 19Q23.8536 19 23.9268 18.9268Q24 18.8536 24 18.75L24 1.25Q24 1.14644 23.9268 1.07322Q23.8536 1 23.75 1ZM23.75 -1Q24.2071 -1 24.6261 -0.822774Q25.0301 -0.651914 25.341 -0.340987Q25.6519 -0.0300617 25.8228 0.373899Q26 0.792908 26 1.25L26 18.75Q26 19.2071 25.8228 19.6261Q25.6519 20.0301 25.341 20.341Q25.0301 20.6519 24.6261 20.8228Q24.2071 21 23.75 21L1.25 21Q0.792906 21 0.373899 20.8228Q-0.0300627 20.6519 -0.340987 20.341Q-0.651914 20.0301 -0.822774 19.6261Q-1 19.2071 -1 18.75L-1 1.25Q-1 0.792902 -0.822773 0.373892Q-0.651913 -0.0300678 -0.34099 -0.340991Q-0.0300675 -0.651913 0.373892 -0.822773Q0.792903 -1 1.25 -1L23.75 -1Z" fill-rule="nonzero" fill="rgb(73, 55, 248)"/>
	<path transform="matrix(1 0 0 1 15 10.625)" d="M0 -1C-0.55228 -1 -1 -0.55228 -1 0L-1 8.75C-1 9.30228 -0.55228 9.75 0 9.75C0.55228 9.75 1 9.30228 1 8.75L1 0C1 -0.55228 0.55228 -1 0 -1Z" fill-rule="evenodd" fill="rgb(255, 255, 255)"/>
	<path transform="matrix(1 0 0 1 20 15)" d="M0 -1C-0.55228 -1 -1 -0.55228 -1 0L-1 4.375C-1 4.92728 -0.55228 5.375 0 5.375C0.55228 5.375 1 4.92728 1 4.375L1 0C1 -0.55228 0.55228 -1 0 -1Z" fill-rule="evenodd" fill="rgb(255, 255, 255)"/>
	<path transform="matrix(1 0 0 1 10 13.75)" d="M0 -1C-0.55228 -1 -1 -0.55228 -1 0L-1 5.625C-1 6.17728 -0.55228 6.625 0 6.625C0.55228 6.625 1 6.17728 1 5.625L1 0C1 -0.55228 0.55228 -1 0 -1Z" fill-rule="evenodd" fill="rgb(255, 255, 255)"/>
</svg>
