<?xml version="1.0" encoding="utf-8" ?>
<svg xmlns="http://www.w3.org/2000/svg" xmlns:xlink="http://www.w3.org/1999/xlink" width="30" height="30" viewBox="0 0 30 30">
	<path transform="matrix(1 0 0 1 3.12502 4.37499)" d="M0 1.25C0 0.559644 0.559644 0 1.25 0L22.5 0C23.1904 0 23.75 0.559644 23.75 1.25L23.75 7.5L0 7.5L0 1.25Z" fill-rule="nonzero" fill="rgb(255, 255, 255)"/>
	<path transform="matrix(1 0 0 1 3.12502 4.37499)" d="M-1 1.25Q-1 0.792903 -0.822773 0.373892Q-0.651913 -0.0300675 -0.34099 -0.34099Q-0.0300676 -0.651913 0.373892 -0.822773Q0.792902 -1 1.25 -1L22.5 -1Q22.9571 -1 23.3761 -0.822774Q23.7801 -0.651914 24.091 -0.340987Q24.4019 -0.0300627 24.5728 0.373899Q24.75 0.792906 24.75 1.25L24.75 7.5Q24.75 7.59849 24.7308 7.69509Q24.7116 7.79169 24.6739 7.88268Q24.6362 7.97368 24.5815 8.05557Q24.5267 8.13746 24.4571 8.20711Q24.3875 8.27675 24.3056 8.33147Q24.2237 8.38619 24.1327 8.42388Q24.0417 8.46157 23.9451 8.48079Q23.8485 8.5 23.75 8.5L0 8.5Q-0.0984914 8.5 -0.19509 8.48079Q-0.291689 8.46157 -0.382683 8.42388Q-0.473678 8.38619 -0.55557 8.33147Q-0.637463 8.27675 -0.707107 8.20711Q-0.776751 8.13746 -0.831469 8.05557Q-0.886188 7.97368 -0.923879 7.88268Q-0.961571 7.79169 -0.980785 7.69509Q-1 7.59849 -1 7.5L-1 1.25ZM1 1.25L1 7.5L0 7.5L0 6.5L23.75 6.5L23.75 7.5L22.75 7.5L22.75 1.25Q22.75 1.14644 22.6768 1.07322Q22.6036 1 22.5 1L1.25 1Q1.14645 1 1.07322 1.07322Q1 1.14645 1 1.25Z" fill-rule="nonzero" fill="rgb(73, 55, 248)"/>
	<path transform="matrix(1 0 0 1 9.99998 2.49999)" d="M0 -1C-0.55228 -1 -1 -0.55228 -1 0L-1 5C-1 5.55228 -0.55228 6 0 6C0.55228 6 1 5.55228 1 5L1 0C1 -0.55228 0.55228 -1 0 -1Z" fill-rule="evenodd" fill="rgb(73, 55, 248)"/>
	<path transform="matrix(1 0 0 1 20 2.49999)" d="M0 -1C-0.55228 -1 -1 -0.55228 -1 0L-1 5C-1 5.55228 -0.55228 6 0 6C0.55228 6 1 5.55228 1 5L1 0C1 -0.55228 0.55228 -1 0 -1Z" fill-rule="evenodd" fill="rgb(73, 55, 248)"/>
	<path transform="matrix(1 0 0 1 3.125 11.875)" d="M0 0L23.75 0L23.75 13.125C23.75 13.8154 23.1904 14.375 22.5 14.375L1.25 14.375C0.559644 14.375 0 13.8154 0 13.125L0 0Z" fill-rule="nonzero" fill="rgb(73, 55, 248)"/>
	<path transform="matrix(1 0 0 1 3.125 11.875)" d="M0 -1L23.75 -1Q23.8485 -1 23.9451 -0.980785Q24.0417 -0.96157 24.1327 -0.923879Q24.2237 -0.886188 24.3056 -0.83147Q24.3875 -0.776751 24.4571 -0.707107Q24.5267 -0.637463 24.5815 -0.55557Q24.6362 -0.473678 24.6739 -0.382683Q24.7116 -0.291689 24.7308 -0.19509Q24.75 -0.0984914 24.75 0L24.75 13.125Q24.75 13.5821 24.5728 14.0011Q24.4019 14.4051 24.091 14.716Q23.7801 15.0269 23.3761 15.1978Q22.9571 15.375 22.5 15.375L1.25 15.375Q0.792904 15.375 0.373899 15.1978Q-0.0300619 15.0269 -0.340987 14.716Q-0.651913 14.4051 -0.822774 14.0011Q-1 13.5821 -1 13.125L-1 0Q-1 -0.0984914 -0.980785 -0.19509Q-0.96157 -0.291689 -0.923879 -0.382683Q-0.886188 -0.473678 -0.83147 -0.55557Q-0.776751 -0.637463 -0.707107 -0.707107Q-0.637463 -0.776751 -0.55557 -0.831469Q-0.473678 -0.886188 -0.382683 -0.923879Q-0.291689 -0.961571 -0.19509 -0.980785Q-0.0984914 -1 0 -1ZM0 1L0 0L1 0L1 13.125Q1 13.2286 1.07322 13.3018Q1.14644 13.375 1.25 13.375L22.5 13.375Q22.6036 13.375 22.6768 13.3018Q22.75 13.2286 22.75 13.125L22.75 0L23.75 0L23.75 1L0 1Z" fill-rule="nonzero" fill="rgb(73, 55, 248)"/>
	<path transform="matrix(1 0 0 1 16.5 20.25)" d="M0 1C0 1.55228 0.44772 2 1 2L4.75 2C5.30228 2 5.75 1.55228 5.75 1C5.75 0.44772 5.30228 0 4.75 0L1 0C0.44772 0 0 0.44772 0 1Z" fill-rule="nonzero" fill="rgb(255, 255, 255)"/>
	<path transform="matrix(1 0 0 1 7.75 20.25)" d="M0 1C0 1.55228 0.44772 2 1 2L4.75 2C5.30228 2 5.75 1.55228 5.75 1C5.75 0.44772 5.30228 0 4.75 0L1 0C0.44772 0 0 0.44772 0 1Z" fill-rule="nonzero" fill="rgb(255, 255, 255)"/>
	<path transform="matrix(1 0 0 1 16.5 15.25)" d="M0 1C0 1.55228 0.44772 2 1 2L4.75 2C5.30228 2 5.75 1.55228 5.75 1C5.75 0.44772 5.30228 0 4.75 0L1 0C0.44772 0 0 0.44772 0 1Z" fill-rule="nonzero" fill="rgb(255, 255, 255)"/>
	<path transform="matrix(1 0 0 1 7.75 15.25)" d="M0 1C0 1.55228 0.44772 2 1 2L4.75 2C5.30228 2 5.75 1.55228 5.75 1C5.75 0.44772 5.30228 0 4.75 0L1 0C0.44772 0 0 0.44772 0 1Z" fill-rule="nonzero" fill="rgb(255, 255, 255)"/>
</svg>
