<?xml version="1.0" encoding="utf-8" ?>
<svg xmlns="http://www.w3.org/2000/svg" xmlns:xlink="http://www.w3.org/1999/xlink" width="30" height="30" viewBox="0 0 30 30">
	<path transform="matrix(1 0 0 1 6 5)" d="M0 0L20 0L20 21L0 21L0 0Z" fill-rule="nonzero" fill="rgb(255, 255, 255)"/>
	<path transform="matrix(1 0 0 1 3.75 1.88086)" d="M19.5762 0L2.92969 0C1.3125 0 0 1.3125 0 2.92969L0 23.2998C0 24.917 1.3125 26.2295 2.92969 26.2295L19.5732 26.2295C21.1904 26.2295 22.5029 24.917 22.5029 23.2998L22.5029 2.92969C22.5059 1.3125 21.1934 0 19.5762 0ZM4.02539 5.8916C4.19531 5.72168 4.42969 5.61621 4.6875 5.61621L14.0625 5.61621C14.5811 5.61621 15 6.03516 15 6.55371C15 6.81445 14.8945 7.04883 14.7246 7.21875C14.5547 7.38867 14.3203 7.49414 14.0625 7.49414L4.6875 7.49414C4.16895 7.49414 3.75 7.0752 3.75 6.55664C3.75 6.2959 3.85547 6.06152 4.02539 5.8916ZM4.02539 11.5166C4.19531 11.3467 4.42969 11.2412 4.6875 11.2412L14.0625 11.2412C14.5811 11.2412 15 11.6602 15 12.1787C15 12.4365 14.8945 12.6709 14.7246 12.8408C14.5547 13.0107 14.3203 13.1162 14.0625 13.1162L4.6875 13.1162C4.16895 13.1162 3.75 12.6973 3.75 12.1787C3.75 11.9209 3.85547 11.6865 4.02539 11.5166ZM9.10254 18.4688C8.93262 18.6387 8.69824 18.7441 8.44043 18.7441L4.69043 18.7441C4.17188 18.7441 3.75293 18.3252 3.75293 17.8066C3.75293 17.5488 3.8584 17.3145 4.02832 17.1445C4.19824 16.9746 4.43262 16.8691 4.69043 16.8691L8.44043 16.8691C8.95899 16.8691 9.37793 17.2881 9.37793 17.8066C9.37793 18.0645 9.27246 18.2988 9.10254 18.4688ZM21.6211 12.2109C21.1172 12.8145 20.2383 13.1426 19.3096 12.999C18.7236 12.9082 18.2168 12.6475 17.8447 12.2813L16.5908 20.3877C16.5791 20.4639 16.5527 20.5371 16.5147 20.6016C16.5234 20.7246 16.5205 20.8506 16.5 20.9766C16.3096 22.207 14.7686 22.9893 13.0547 22.7227C11.3438 22.4561 10.1104 21.2461 10.3008 20.0156C10.4912 18.7852 12.0322 18.0029 13.7461 18.2695C14.4727 18.3838 15.1143 18.665 15.5977 19.0488L16.96 10.248C17.0068 9.94922 17.2647 9.73828 17.5576 9.74414C17.584 9.74414 17.6104 9.74707 17.6367 9.75C17.7246 9.76465 17.8037 9.79688 17.874 9.84082C17.9063 10.1426 17.9854 10.4355 18.1084 10.7051C18.2578 11.1211 18.5537 11.4961 18.9492 11.7715C19.2744 12 19.6699 12.1641 20.1035 12.2314C20.7275 12.3281 21.3281 12.2109 21.8057 11.9443C21.7529 12.0439 21.6914 12.1289 21.6211 12.2109Z" fill-rule="nonzero" fill="rgb(73, 55, 248)"/>
</svg>
