<?xml version="1.0" encoding="utf-8" ?>
<svg xmlns="http://www.w3.org/2000/svg" xmlns:xlink="http://www.w3.org/1999/xlink" width="24" height="24" viewBox="0 0 24 24">
	<path transform="matrix(1 0 0 1 2 2)" d="M10 20C15.5229 20 20 15.5229 20 10C20 4.47715 15.5229 0 10 0C4.47715 0 0 4.47715 0 10C0 15.5229 4.47715 20 10 20Z" fill-rule="nonzero" fill="rgb(73, 55, 248)"/>
	<path transform="matrix(1 0 0 1 2 2)" d="M10 19Q11.8317 19 13.5029 18.2931Q15.1178 17.6101 16.364 16.364Q17.6101 15.1178 18.2931 13.5029Q19 11.8317 19 10Q19 8.16829 18.2931 6.4971Q17.6101 4.88217 16.364 3.63604Q15.1178 2.38991 13.5029 1.70685Q11.8317 1 10 1Q8.16829 1 6.4971 1.70685Q4.88216 2.38991 3.63604 3.63604Q2.38992 4.88216 1.70685 6.4971Q1 8.16829 1 10Q1 11.8317 1.70685 13.5029Q2.38991 15.1178 3.63604 16.364Q4.88216 17.6101 6.4971 18.2931Q8.1683 19 10 19ZM10 21Q7.76272 21 5.718 20.1352Q3.74378 19.3001 2.22182 17.7782Q0.699865 16.2562 -0.135155 14.282Q-1 12.2373 -1 10Q-1 7.76272 -0.135155 5.718Q0.699867 3.74378 2.22182 2.22182Q3.74378 0.699866 5.718 -0.135155Q7.76272 -1 10 -1Q12.2373 -1 14.282 -0.135155Q16.2562 0.699866 17.7782 2.22182Q19.3001 3.74378 20.1352 5.718Q21 7.76272 21 10Q21 12.2373 20.1352 14.282Q19.3001 16.2562 17.7782 17.7782Q16.2562 19.3001 14.282 20.1352Q12.2373 21 10 21Z" fill-rule="nonzero" fill="rgb(73, 55, 248)"/>
	<path transform="matrix(1 0 0 1 6 6)" d="M4.05409 1.39252Q4.98209 1 6 1C6.55228 1 7 0.55228 7 0C7 -0.55228 6.55228 -1 6 -1Q4.57652 -1 3.27498 -0.449493Q2.0186 0.0819132 1.05026 1.05026Q0.081913 2.0186 -0.449493 3.27498Q-1 4.57652 -1 6C-1 6.55228 -0.55228 7 0 7C0.55228 7 1 6.55228 1 6Q1 4.98209 1.39251 4.05409Q1.77196 3.15698 2.46447 2.46447Q3.15698 1.77196 4.05409 1.39252Z" fill-rule="evenodd" fill="rgb(255, 255, 255)"/>
	<path transform="matrix(1 0 0 1 12 12)" d="M6 -1C5.44772 -1 5 -0.55228 5 0Q5 1.01791 4.60748 1.94591Q4.22804 2.84302 3.53553 3.53553Q2.84302 4.22804 1.94591 4.60748Q1.01791 5 0 5C-0.55228 5 -1 5.44772 -1 6C-1 6.55228 -0.55228 7 0 7Q1.42348 7 2.72502 6.44949Q3.9814 5.91809 4.94974 4.94974Q5.91809 3.9814 6.44949 2.72502Q7 1.42348 7 0C7 -0.55228 6.55228 -1 6 -1Z" fill-rule="evenodd" fill="rgb(255, 255, 255)"/>
	<path transform="matrix(1 0 0 1 10 10)" d="M2 4C3.10455 4 4 3.10455 4 2C4 0.89545 3.10455 0 2 0C0.89545 0 0 0.89545 0 2C0 3.10455 0.89545 4 2 4Z" fill-rule="nonzero" fill="rgb(255, 255, 255)"/>
	<path transform="matrix(1 0 0 1 10 10)" d="M2 3Q2.4142 3 2.7071 2.7071Q3 2.4142 3 2Q3 1.5858 2.7071 1.2929Q2.4142 1 2 1Q1.5858 1 1.2929 1.2929Q1 1.5858 1 2Q1 2.4142 1.2929 2.7071Q1.5858 3 2 3ZM2 5Q1.39032 5 0.83196 4.76383Q0.293413 4.53604 -0.121313 4.12131Q-0.536039 3.70659 -0.763829 3.16804Q-1 2.60968 -1 2Q-1 1.39032 -0.763829 0.83196Q-0.536039 0.293413 -0.121313 -0.121313Q0.293412 -0.536039 0.83196 -0.763829Q1.39032 -1 2 -1Q2.60968 -1 3.16804 -0.763829Q3.70659 -0.536039 4.12131 -0.121313Q4.53604 0.293413 4.76383 0.83196Q5 1.39032 5 2Q5 2.60968 4.76383 3.16804Q4.53604 3.70659 4.12131 4.12131Q3.70659 4.53604 3.16804 4.76383Q2.60968 5 2 5Z" fill-rule="nonzero" fill="rgb(255, 255, 255)"/>
</svg>
